<svg width="121" height="30" viewBox="0 0 121 30" fill="none" xmlns="http://www.w3.org/2000/svg">
<g clip-path="url(#clip0_659_64)">
<path d="M16.0239 20.6464V14.3266L20.7356 18.7682C25.4218 12.6134 20.1483 4.03472 12.6274 5.1134C10.6609 5.37989 8.80944 6.31898 7.44316 7.75299C1.92698 13.5144 6.53657 23.4256 15.5004 22.3469C15.794 22.3088 16.1005 22.2961 16.3942 22.3596H16.407C16.8411 22.4357 17.2242 22.6642 17.5306 22.9814L20.1993 25.6718C4.92768 32.5753 -6.09191 14.72 3.7274 4.3139C15.9217 -7.75463 35.0496 7.87989 24.3492 22.0931L26.022 23.7301V29.9992L16.0239 20.6464Z" fill="white"/>
<path d="M30.1602 26.2817H33.7482V17.868C33.7482 17.4873 33.7738 17.1066 33.8504 16.7385C34.8591 11.5609 42.3289 11.4086 43.6314 16.4847C43.7591 16.9543 43.7974 17.4492 43.7974 17.9441V26.269H47.2833V17.5126C47.2833 16.2563 47.0279 15.0126 46.4916 13.8705C43.5548 7.77914 34.4377 7.55071 31.1689 13.5279C30.4794 14.7842 30.1602 16.2055 30.1602 17.6269V26.2817Z" fill="white"/>
<path d="M40.452 17.7284H37.0044V26.2817H40.452V17.7284Z" fill="white"/>
<path d="M66.0155 26.3324L66.0538 22.7664L57.588 22.6776C57.205 22.6776 56.8219 22.6395 56.4516 22.576C51.2546 21.5227 51.1908 14.0989 56.3111 12.8425C56.7836 12.7283 57.2816 12.6902 57.7796 12.6902L66.156 12.7791L66.1943 9.31461L57.371 9.22578C56.1068 9.21309 54.8427 9.44152 53.7063 9.97451C47.5517 12.8298 47.2197 21.8781 53.1955 25.2029C54.4469 25.9009 55.877 26.2309 57.3199 26.2562L66.0155 26.3324Z" fill="white"/>
<path d="M57.5201 16.02L57.4829 19.446L66.0883 19.5384L66.1256 16.1124L57.5201 16.02Z" fill="white"/>
<path d="M102.113 26.3324L102.152 22.7664L93.6857 22.6776C93.3027 22.6776 92.9196 22.6395 92.5493 22.576C87.3523 21.5227 87.2885 14.0989 92.4088 12.8425C92.8813 12.7283 93.3793 12.6902 93.8772 12.6902L102.254 12.7791L102.292 9.31461L93.4686 9.22578C92.2045 9.21309 90.9404 9.44152 89.804 9.97451C83.6493 12.8298 83.3173 21.8781 89.2932 25.2029C90.5446 25.9009 91.9747 26.2309 93.4176 26.2562L102.113 26.3324Z" fill="white"/>
<path d="M93.6227 16.0139L93.5854 19.4399L102.191 19.5323L102.228 16.1063L93.6227 16.0139Z" fill="white"/>
<path d="M67.8027 9.47961H84.9898V12.7537H78.1073V26.2816H74.5703V12.8045H67.8027V9.47961Z" fill="white"/>
<path d="M104.296 9.47961H115.852C116.248 9.47961 116.644 9.505 117.027 9.59383C121.93 10.6598 122.224 17.6522 117.704 18.972C119.262 20.5456 120.104 22.9187 120.079 26.2816H116.58C116.593 22.4618 115.227 20.3299 112.635 19.6953C112.137 19.5684 111.626 19.5304 111.115 19.5304H104.296V16.2436H115.418C117.525 16.2436 117.525 12.7283 115.418 12.7283H104.296V9.47961Z" fill="white"/>
</g>
<defs>
<clipPath id="clip0_659_64">
<rect width="120.909" height="30" fill="white"/>
</clipPath>
</defs>
</svg>
